<svg width="188" height="47" viewBox="0 0 188 47" fill="none" xmlns="http://www.w3.org/2000/svg">
<path fill-rule="evenodd" clip-rule="evenodd" d="M35.5427 28.3089C35.5427 38.1238 27.5862 46.0803 17.7713 46.0803C7.95649 46.0803 0 38.1238 0 28.3089C0 18.4941 7.95649 10.5376 17.7713 10.5376C27.5862 10.5376 35.5427 18.4941 35.5427 28.3089ZM13.465 30.0652L18.6333 21.4931V26.6364H22.0789L16.9105 35.2084V30.0652H13.465Z" fill="#E1544E"/>
<path d="M41.8983 18.9006C44.2077 18.9006 46.0798 17.0285 46.0798 14.7191C46.0798 12.4097 44.2077 10.5376 41.8983 10.5376C39.5889 10.5376 37.7168 12.4097 37.7168 14.7191C37.7168 17.0285 39.5889 18.9006 41.8983 18.9006Z" fill="#E1544E"/>
<path d="M43.3191 5.35204C44.7509 5.35204 45.9116 4.19133 45.9116 2.75952C45.9116 1.3277 44.7509 0.166992 43.3191 0.166992C41.8873 0.166992 40.7266 1.3277 40.7266 2.75952C40.7266 4.19133 41.8873 5.35204 43.3191 5.35204Z" fill="#E1544E"/>
<path d="M31.3612 8.36298C33.6705 8.36298 35.5427 6.49086 35.5427 4.18149C35.5427 1.87212 33.6705 0 31.3612 0C29.0518 0 27.1797 1.87212 27.1797 4.18149C27.1797 6.49086 29.0518 8.36298 31.3612 8.36298Z" fill="#E1544E"/>
<path d="M184.991 42.0565C184.588 42.0565 184.23 41.9678 183.916 41.7903C183.609 41.6128 183.366 41.367 183.189 41.053C183.018 40.739 182.933 40.384 182.933 39.988C182.933 39.5853 183.018 39.2303 183.189 38.9231C183.366 38.609 183.609 38.3633 183.916 38.1858C184.23 38.0015 184.588 37.9093 184.991 37.9093C185.387 37.9093 185.739 38.0015 186.046 38.1858C186.353 38.3633 186.592 38.609 186.763 38.9231C186.94 39.2303 187.029 39.5853 187.029 39.988C187.029 40.384 186.94 40.739 186.763 41.053C186.592 41.367 186.353 41.6128 186.046 41.7903C185.739 41.9678 185.387 42.0565 184.991 42.0565ZM185.401 41.0735L184.766 40.0597H185.288L185.974 41.0735H185.401ZM184.991 41.6879C185.326 41.6879 185.612 41.6162 185.851 41.4728C186.097 41.3226 186.288 41.1213 186.425 40.8687C186.561 40.6093 186.63 40.3157 186.63 39.988C186.63 39.6535 186.561 39.36 186.425 39.1074C186.288 38.8548 186.097 38.6568 185.851 38.5135C185.612 38.3633 185.326 38.2882 184.991 38.2882C184.657 38.2882 184.363 38.3633 184.11 38.5135C183.865 38.6568 183.674 38.8548 183.537 39.1074C183.4 39.36 183.332 39.6535 183.332 39.988C183.332 40.3157 183.4 40.6093 183.537 40.8687C183.674 41.1213 183.865 41.3226 184.11 41.4728C184.363 41.6162 184.657 41.6879 184.991 41.6879ZM184.172 41.0735V38.8719H185.145C185.377 38.8719 185.558 38.9333 185.687 39.0562C185.824 39.1722 185.892 39.3361 185.892 39.5477C185.892 39.7525 185.824 39.9164 185.687 40.0392C185.558 40.1553 185.377 40.2133 185.145 40.2133H184.653V41.0735H184.172ZM184.653 39.8242H185.104C185.192 39.8242 185.264 39.8037 185.319 39.7628C185.38 39.7218 185.411 39.6535 185.411 39.558C185.411 39.4624 185.38 39.3975 185.319 39.3634C185.264 39.3224 185.192 39.302 185.104 39.302H184.653V39.8242Z" fill="#657991"/>
<path d="M50.2132 40.6463C48.9128 40.6463 47.7644 40.4228 46.768 39.9756C45.7715 39.5113 44.9862 38.8577 44.412 38.015C43.8378 37.1551 43.5423 36.1146 43.5254 34.8935H46.9453C46.9791 35.7362 47.2746 36.45 47.8319 37.0347C48.4061 37.6023 49.1914 37.886 50.1879 37.886C51.0492 37.886 51.7331 37.6796 52.2398 37.2669C52.7464 36.8369 52.9998 36.2694 52.9998 35.5643C52.9998 34.8247 52.7718 34.2486 52.3158 33.8358C51.8767 33.4231 51.2856 33.0877 50.5425 32.8297C49.7994 32.5718 49.0057 32.2966 48.1613 32.0042C46.7933 31.5227 45.7462 30.9035 45.02 30.1468C44.3107 29.3901 43.956 28.384 43.956 27.1285C43.9392 26.0622 44.184 25.1507 44.6907 24.394C45.2142 23.6201 45.9235 23.0268 46.8186 22.614C47.7137 22.1841 48.7439 21.9691 49.9092 21.9691C51.0914 21.9691 52.13 22.1841 53.0251 22.614C53.9371 23.044 54.6464 23.6459 55.153 24.4198C55.6766 25.1937 55.9552 26.1138 55.989 27.1801H52.5185C52.5016 26.5438 52.2567 25.9849 51.7838 25.5033C51.3278 25.0046 50.6861 24.7552 49.8585 24.7552C49.1492 24.738 48.5497 24.9186 48.0599 25.2969C47.587 25.6581 47.3506 26.1912 47.3506 26.8964C47.3506 27.4983 47.5364 27.9799 47.9079 28.341C48.2795 28.685 48.7861 28.9773 49.4279 29.2181C50.0696 29.4589 50.8043 29.7169 51.6318 29.992C52.51 30.3016 53.3122 30.6628 54.0384 31.0755C54.7646 31.4883 55.3473 32.0386 55.7864 32.7266C56.2255 33.3973 56.445 34.2658 56.445 35.3321C56.445 36.278 56.2086 37.1551 55.7357 37.9634C55.2628 38.7717 54.5619 39.4253 53.6331 39.924C52.7042 40.4056 51.5643 40.6463 50.2132 40.6463Z" fill="#657991"/>
<path d="M63.91 40.6463C62.3394 40.6463 61.1234 40.1476 60.2621 39.1501C59.4177 38.1526 58.9955 36.6907 58.9955 34.7645V27.5413H62.2127V34.455C62.2127 35.5557 62.4323 36.3984 62.8714 36.9831C63.3105 37.5679 64.0029 37.8602 64.9486 37.8602C65.8437 37.8602 66.5784 37.5335 67.1526 36.8799C67.7437 36.2264 68.0392 35.3149 68.0392 34.1454V27.5413H71.2818V40.3368H68.4192L68.1659 38.1698C67.7774 38.9265 67.2117 39.5285 66.4686 39.9756C65.7424 40.4228 64.8895 40.6463 63.91 40.6463Z" fill="#657991"/>
<path d="M74.6104 46.0122V27.5413H77.4984L77.853 29.3729C78.2583 28.8054 78.7903 28.3066 79.449 27.8767C80.1245 27.4467 80.9942 27.2317 82.0582 27.2317C83.2404 27.2317 84.2959 27.5241 85.2248 28.1088C86.1536 28.6936 86.8883 29.4933 87.4287 30.508C87.9692 31.5227 88.2394 32.675 88.2394 33.9648C88.2394 35.2547 87.9692 36.407 87.4287 37.4217C86.8883 38.4192 86.1536 39.2103 85.2248 39.795C84.2959 40.3626 83.2404 40.6463 82.0582 40.6463C81.1125 40.6463 80.2849 40.4658 79.5756 40.1046C78.8663 39.7434 78.2921 39.2361 77.853 38.5826V46.0122H74.6104ZM81.3742 37.757C82.4044 37.757 83.2573 37.4045 83.9328 36.6993C84.6084 35.9942 84.9461 35.0827 84.9461 33.9648C84.9461 32.8469 84.6084 31.9268 83.9328 31.2045C83.2573 30.4822 82.4044 30.121 81.3742 30.121C80.3272 30.121 79.4658 30.4822 78.7903 31.2045C78.1317 31.9096 77.8023 32.8211 77.8023 33.939C77.8023 35.0569 78.1317 35.977 78.7903 36.6993C79.4658 37.4045 80.3272 37.757 81.3742 37.757Z" fill="#657991"/>
<path d="M97.2411 40.6463C95.9745 40.6463 94.8514 40.3712 93.8719 39.8208C92.8924 39.2705 92.124 38.4966 91.5666 37.4991C91.0093 36.5016 90.7307 35.3493 90.7307 34.0422C90.7307 32.718 91.0009 31.5399 91.5413 30.508C92.0986 29.4761 92.8586 28.6764 93.8212 28.1088C94.8008 27.5241 95.9492 27.2317 97.2665 27.2317C98.4993 27.2317 99.5886 27.5069 100.534 28.0572C101.48 28.6076 102.215 29.3643 102.738 30.3274C103.279 31.2733 103.549 32.331 103.549 33.5005C103.549 33.6897 103.54 33.8874 103.524 34.0938C103.524 34.3002 103.515 34.5152 103.498 34.7387H93.9479C94.0155 35.7362 94.3532 36.5188 94.9612 37.0863C95.5861 37.6538 96.3376 37.9376 97.2158 37.9376C97.8745 37.9376 98.4233 37.7914 98.8624 37.4991C99.3184 37.1895 99.6562 36.7939 99.8757 36.3124H103.169C102.933 37.1207 102.536 37.8602 101.978 38.531C101.438 39.1845 100.762 39.7004 99.9517 40.0788C99.158 40.4572 98.2544 40.6463 97.2411 40.6463ZM97.2665 29.9146C96.4727 29.9146 95.7718 30.1468 95.1639 30.6112C94.5559 31.0583 94.1674 31.7463 93.9986 32.675H100.256C100.205 31.8322 99.9011 31.1615 99.3437 30.6628C98.7864 30.164 98.094 29.9146 97.2665 29.9146Z" fill="#657991"/>
<path d="M106.276 40.3368V27.5413H109.164L109.468 29.9404C109.924 29.1149 110.54 28.4614 111.317 27.9799C112.111 27.4811 113.04 27.2317 114.104 27.2317V30.7144H113.192C112.483 30.7144 111.849 30.8262 111.292 31.0497C110.735 31.2733 110.296 31.6603 109.975 32.2106C109.671 32.761 109.519 33.5263 109.519 34.5066V40.3368H106.276Z" fill="#657991"/>
<path d="M116.472 40.3368V22.2786H123.16C125.001 22.2786 126.394 22.7172 127.34 23.5943C128.286 24.4714 128.758 25.5721 128.758 26.8964C128.758 28.0486 128.454 28.9687 127.846 29.6567C127.238 30.3274 126.504 30.7832 125.643 31.0239C126.318 31.1615 126.918 31.4367 127.441 31.8494C127.982 32.2622 128.404 32.7782 128.708 33.3973C129.012 34.0164 129.164 34.6872 129.164 35.4095C129.164 36.3382 128.936 37.1809 128.48 37.9376C128.041 38.6771 127.39 39.2619 126.529 39.6918C125.668 40.1218 124.612 40.3368 123.363 40.3368H116.472ZM119.157 30.0178H122.831C123.861 30.0178 124.646 29.7771 125.187 29.2955C125.727 28.7968 125.997 28.1174 125.997 27.2575C125.997 26.4148 125.727 25.7441 125.187 25.2453C124.663 24.7466 123.861 24.4972 122.78 24.4972H119.157V30.0178ZM119.157 38.0924H123.008C124.089 38.0924 124.925 37.8344 125.516 37.3185C126.124 36.8025 126.428 36.0802 126.428 35.1515C126.428 34.2228 126.115 33.4919 125.491 32.9587C124.866 32.4084 124.021 32.1332 122.957 32.1332H119.157V38.0924Z" fill="#657991"/>
<path d="M137.883 40.6463C136.684 40.6463 135.603 40.3712 134.64 39.8208C133.695 39.2533 132.943 38.4708 132.386 37.4733C131.828 36.4586 131.55 35.2805 131.55 33.939C131.55 32.5976 131.828 31.4281 132.386 30.4306C132.96 29.4159 133.728 28.6334 134.691 28.083C135.654 27.5155 136.726 27.2317 137.908 27.2317C139.107 27.2317 140.18 27.5155 141.125 28.083C142.088 28.6334 142.848 29.4159 143.405 30.4306C143.98 31.4281 144.267 32.5976 144.267 33.939C144.267 35.2805 143.98 36.4586 143.405 37.4733C142.848 38.4708 142.088 39.2533 141.125 39.8208C140.163 40.3712 139.082 40.6463 137.883 40.6463ZM137.883 38.2988C138.525 38.2988 139.116 38.1354 139.656 37.8086C140.213 37.4819 140.661 37.0003 140.999 36.364C141.337 35.7104 141.505 34.9021 141.505 33.939C141.505 32.9759 141.337 32.1762 140.999 31.5399C140.678 30.8863 140.239 30.3962 139.682 30.0694C139.141 29.7427 138.55 29.5793 137.908 29.5793C137.266 29.5793 136.667 29.7427 136.11 30.0694C135.569 30.3962 135.13 30.8863 134.792 31.5399C134.455 32.1762 134.286 32.9759 134.286 33.939C134.286 34.9021 134.455 35.7104 134.792 36.364C135.13 37.0003 135.569 37.4819 136.11 37.8086C136.65 38.1354 137.241 38.2988 137.883 38.2988Z" fill="#657991"/>
<path d="M147.171 40.3368V21.7627H149.856V40.3368H147.171Z" fill="#657991"/>
<path d="M158.526 40.3368C157.293 40.3368 156.313 40.0358 155.587 39.4339C154.861 38.8147 154.498 37.7226 154.498 36.1576V29.8373H152.344V27.5413H154.498L154.827 24.2908H157.183V27.5413H160.729V29.8373H157.183V36.1576C157.183 36.8627 157.326 37.3529 157.614 37.628C157.918 37.886 158.433 38.015 159.159 38.015H160.603V40.3368H158.526Z" fill="#657991"/>
<path d="M169.054 40.6463C167.821 40.6463 166.723 40.3712 165.761 39.8208C164.815 39.2533 164.072 38.4708 163.531 37.4733C162.991 36.4758 162.721 35.3149 162.721 33.9906C162.721 32.6492 162.982 31.4711 163.506 30.4564C164.046 29.4417 164.79 28.6506 165.735 28.083C166.698 27.5155 167.813 27.2317 169.079 27.2317C170.312 27.2317 171.384 27.5155 172.296 28.083C173.208 28.6334 173.918 29.3729 174.424 30.3016C174.931 31.2303 175.184 32.2536 175.184 33.3715C175.184 33.5435 175.176 33.7327 175.159 33.939C175.159 34.1282 175.151 34.3432 175.134 34.584H165.355C165.44 35.8222 165.837 36.7681 166.546 37.4217C167.272 38.058 168.108 38.3762 169.054 38.3762C169.814 38.3762 170.447 38.2042 170.954 37.8602C171.477 37.4991 171.866 37.0175 172.119 36.4156H174.804C174.467 37.6195 173.791 38.6255 172.778 39.4339C171.781 40.2422 170.54 40.6463 169.054 40.6463ZM169.054 29.4761C168.159 29.4761 167.365 29.7513 166.673 30.3016C165.98 30.8348 165.558 31.6431 165.406 32.7266H172.499C172.448 31.7291 172.102 30.9379 171.46 30.3532C170.819 29.7685 170.016 29.4761 169.054 29.4761Z" fill="#657991"/>
<path d="M177.97 40.3368V27.5413H180.377L180.605 29.9662C181.044 29.1235 181.652 28.4614 182.429 27.9799C183.223 27.4811 184.177 27.2317 185.292 27.2317V30.0952H184.557C183.814 30.0952 183.147 30.2242 182.556 30.4822C181.981 30.723 181.517 31.1443 181.162 31.7463C180.825 32.331 180.656 33.1479 180.656 34.197V40.3368H177.97Z" fill="#657991"/>
</svg>
